<svg version="1.2" baseProfile="tiny-ps" xmlns="http://www.w3.org/2000/svg" viewBox="0 0 22 18" width="22" height="18">
	<title>Shape 35</title>
	<style>
		tspan { white-space:pre }
		.shp0 { fill: #b8b8b8 } 
	</style>
	<path id="Shape 35" class="shp0" d="M10.99 17C10.65 17 10.31 16.86 10.05 16.62C9.47 16.08 8.89 15.54 8.31 15.01C6.84 13.64 5.31 12.22 3.81 10.84C2.99 10.08 2.46 9.27 2.19 8.37C1.79 7 2.02 5.53 2.82 4.31C3.6 3.11 4.86 2.3 6.27 2.08C6.6 2.03 6.93 2.01 7.25 2.01C8.72 2.01 9.98 2.56 10.99 3.64C11.23 3.39 11.5 3.16 11.79 2.95C12.67 2.33 13.71 2 14.8 2C17.39 2 19.55 3.78 19.93 6.23C20.2 7.92 19.68 9.43 18.43 10.6C17.13 11.82 15.8 13.06 14.51 14.25C13.95 14.76 13.4 15.27 12.84 15.79L12.55 16.06C12.35 16.25 12.15 16.44 11.94 16.62C11.68 16.87 11.34 17 10.99 17ZM7.25 3.4C7.01 3.4 6.75 3.42 6.5 3.46C5.49 3.61 4.59 4.2 4.02 5.06C3.45 5.94 3.28 7.01 3.57 7.98C3.76 8.65 4.15 9.24 4.79 9.83C6.3 11.22 7.82 12.63 9.3 14C9.86 14.53 10.43 15.05 11 15.58C11.19 15.4 11.37 15.23 11.56 15.06L11.86 14.78C12.41 14.27 12.96 13.76 13.52 13.24C14.81 12.05 16.14 10.82 17.44 9.6C18.35 8.74 18.71 7.68 18.52 6.44C18.2 4.44 16.41 3.39 14.8 3.39C14.02 3.39 13.27 3.63 12.63 4.08C12.22 4.36 11.89 4.71 11.61 5.15L11.03 6.04L10.35 5.08C9.53 3.95 8.52 3.4 7.25 3.4Z" />
</svg>