<svg version="1.2" baseProfile="tiny-ps" xmlns="http://www.w3.org/2000/svg" viewBox="0 0 27 24" width="27" height="24">
	<title>Shape 42</title>
	<style>
		tspan { white-space:pre }
		.shp0 { fill: #ffffff } 
	</style>
	<path id="Shape 42" class="shp0" d="M13.5 23C13.14 23 12.8 22.87 12.53 22.64C11.51 21.76 10.54 20.94 9.68 20.22C4.45 15.81 1 12.9 1 8.43C1 4.2 4 1 7.98 1C9.43 1 10.75 1.45 11.92 2.34C12.57 2.84 13.1 3.43 13.5 3.97C13.9 3.43 14.42 2.84 15.08 2.34C16.24 1.45 17.57 1 19.01 1C23 1 26 4.2 26 8.43C26 12.9 22.55 15.81 17.32 20.22C16.46 20.94 15.48 21.76 14.47 22.64C14.2 22.87 13.86 23 13.5 23ZM7.98 2.46C4.84 2.46 2.48 5.03 2.48 8.43C2.48 12.22 5.72 14.96 10.64 19.1C11.51 19.83 12.48 20.65 13.5 21.53C14.51 20.65 15.49 19.83 16.36 19.1C21.27 14.96 24.52 12.22 24.52 8.43C24.52 5.03 22.15 2.46 19.01 2.46C17.9 2.46 16.89 2.81 15.99 3.5C15.09 4.19 14.49 5.07 14.15 5.69L13.5 6.87L12.85 5.69C12.5 5.07 11.91 4.19 11.01 3.5C10.11 2.81 9.09 2.46 7.98 2.46Z" />
</svg>