<svg version="1.2" baseProfile="tiny-ps" xmlns="http://www.w3.org/2000/svg" viewBox="0 0 31 31" width="31" height="31">
	<title>Shape 1</title>
	<style>
		tspan { white-space:pre }
		.shp0 { fill: #efbf73 } 
	</style>
	<path id="Shape 1" class="shp0" d="M28.58 20.69C26.74 20.69 24.94 20.4 23.23 19.83C22.39 19.55 21.36 19.81 20.85 20.34L17.48 22.88C13.57 20.79 11.16 18.38 9.1 14.5L11.57 11.22C12.21 10.58 12.44 9.64 12.17 8.76C11.6 7.04 11.31 5.24 11.31 3.4C11.31 2.08 10.23 1 8.9 1L3.39 1C2.07 1 0.99 2.08 0.99 3.4C0.99 18.62 13.36 30.99 28.58 30.99C29.9 30.99 30.98 29.91 30.98 28.59L30.98 23.09C30.98 21.77 29.9 20.69 28.58 20.69" />
</svg>