<svg version="1.2" baseProfile="tiny-ps" xmlns="http://www.w3.org/2000/svg" viewBox="0 0 19 18" width="19" height="18">
	<title>Shape 20</title>
	<style>
		tspan { white-space:pre }
		.shp0 { fill: #a7abb5 } 
	</style>
	<path id="Shape 20" class="shp0" d="M7.91 11.69C5.27 11.69 3.12 9.55 3.12 6.91C3.12 4.27 5.27 2.13 7.91 2.13C10.55 2.13 12.69 4.27 12.69 6.91C12.69 9.55 10.55 11.69 7.91 11.69M13.48 10.98C14.32 9.84 14.82 8.43 14.82 6.91C14.82 3.1 11.72 0 7.91 0C4.1 0 1 3.1 1 6.91C1 10.72 4.1 13.82 7.91 13.82C9.43 13.82 10.83 13.32 11.98 12.48L16.5 17.01L18.01 15.51L13.48 10.98Z" />
</svg>