<svg version="1.2" baseProfile="tiny-ps" xmlns="http://www.w3.org/2000/svg" viewBox="0 0 42 43" width="42" height="43">
	<title>Shape 33</title>
	<style>
		tspan { white-space:pre }
		.shp0 { fill: #b3b3b3 } 
	</style>
	<path id="Shape 33" class="shp0" d="M12.32 21L24.57 8.75L27.47 11.65L18.12 21L27.47 30.35L24.57 33.26L12.32 21ZM21 41.01C9.98 41.01 1.01 32.03 1.01 21C1.01 9.97 9.98 1 21 1C32.02 1 40.99 9.97 40.99 21C40.99 32.03 32.02 41.01 21 41.01ZM21 3.77C11.5 3.77 3.77 11.5 3.77 21C3.77 30.51 11.5 38.24 21 38.24C30.5 38.24 38.23 30.51 38.23 21C38.23 11.5 30.5 3.77 21 3.77Z" />
</svg>