<svg version="1.2" baseProfile="tiny-ps" xmlns="http://www.w3.org/2000/svg" viewBox="0 0 17 16" width="17" height="16">
	<title>Shape 31</title>
	<style>
		tspan { white-space:pre }
		.shp0 { fill: #ffffff } 
	</style>
	<path id="Shape 31" class="shp0" d="M6.95 7.52C8.78 7.52 10.26 6.06 10.26 4.26C10.26 2.46 8.78 1 6.95 1C5.13 1 3.65 2.46 3.65 4.26C3.65 6.06 5.13 7.52 6.95 7.52ZM6.95 1.98C8.23 1.98 9.27 3 9.27 4.26C9.27 5.52 8.23 6.54 6.95 6.54C5.68 6.54 4.64 5.52 4.64 4.26C4.64 3 5.68 1.98 6.95 1.98ZM15.72 11.43L15.55 11.43L15.55 10.46C15.55 9.56 14.81 8.83 13.9 8.83C12.99 8.83 12.25 9.56 12.25 10.46L12.25 11.43L12.08 11.43C11.44 11.43 10.92 11.95 10.92 12.58L10.92 14.86C10.92 15.49 11.44 16 12.08 16L15.72 16C16.36 16 16.88 15.49 16.88 14.86L16.88 12.58C16.88 11.95 16.36 11.43 15.72 11.43ZM13.24 10.46C13.24 10.1 13.53 9.8 13.9 9.8C14.26 9.8 14.56 10.1 14.56 10.46L14.56 11.43L13.24 11.43L13.24 10.46ZM15.88 14.86C15.88 14.95 15.81 15.02 15.72 15.02L12.08 15.02C11.99 15.02 11.91 14.95 11.91 14.86L11.91 12.58C11.91 12.49 11.99 12.41 12.08 12.41L12.74 12.41L15.06 12.41L15.72 12.41C15.81 12.41 15.88 12.49 15.88 12.58L15.88 14.86ZM4.14 9.8L9.93 9.8C10.31 9.8 10.68 9.9 11 10.09C11.24 10.22 11.55 10.15 11.68 9.91C11.82 9.68 11.74 9.38 11.5 9.24C11.03 8.97 10.48 8.83 9.93 8.83L4.14 8.83C2.41 8.83 1 10.21 1 11.92L1 14.21C1 14.48 1.22 14.69 1.5 14.69L9.27 14.69C9.54 14.69 9.76 14.48 9.76 14.21C9.76 13.94 9.54 13.72 9.27 13.72L1.99 13.72L1.99 11.92C1.99 10.75 2.96 9.8 4.14 9.8Z" />
</svg>