<svg version="1.2" baseProfile="tiny-ps" xmlns="http://www.w3.org/2000/svg" viewBox="0 0 23 27" width="23" height="27">
	<title>Shape 41</title>
	<style>
		tspan { white-space:pre }
		.shp0 { fill: #ffffff } 
	</style>
	<path id="Shape 41" class="shp0" d="M21.95 19.72C21.92 19.23 21.85 18.71 21.76 18.15C21.66 17.59 21.53 17.06 21.37 16.57C21.2 16.04 20.97 15.52 20.69 15.03C20.39 14.49 20.04 14.02 19.63 13.64C19.19 13.22 18.66 12.88 18.05 12.64C17.45 12.39 16.78 12.27 16.07 12.27C15.87 12.27 15.68 12.31 15.49 12.38C15.62 12.27 15.76 12.15 15.89 12.01C17.14 10.76 17.77 9.23 17.77 7.45C17.77 5.68 17.14 4.14 15.89 2.89C14.64 1.64 13.12 1 11.35 1C9.59 1 8.06 1.64 6.82 2.89C5.57 4.14 4.94 5.68 4.94 7.45C4.94 9.23 5.57 10.76 6.82 12.01C6.91 12.11 7.02 12.2 7.12 12.29C7.05 12.28 6.99 12.27 6.92 12.27C6.22 12.27 5.55 12.39 4.94 12.64C4.33 12.88 3.8 13.22 3.36 13.64C2.96 14.03 2.6 14.49 2.3 15.03C2.02 15.52 1.8 16.04 1.63 16.57C1.47 17.06 1.34 17.59 1.24 18.15C1.14 18.71 1.08 19.23 1.04 19.72C1.01 20.18 0.99 20.67 0.99 21.15C0.99 22.61 1.47 23.8 2.4 24.69C3.3 25.56 4.49 26 5.91 26L17.08 26C18.51 26 19.69 25.56 20.6 24.69C21.53 23.8 22 22.61 22 21.15C22 20.66 21.99 20.18 21.95 19.72ZM6.59 7.45C6.59 6.14 7.06 5 7.99 4.07C8.91 3.14 10.04 2.66 11.35 2.66C12.66 2.66 13.79 3.14 14.72 4.07C15.64 5 16.11 6.14 16.11 7.45C16.11 8.77 15.64 9.91 14.72 10.84C13.79 11.77 12.66 12.24 11.35 12.24C10.04 12.24 8.91 11.77 7.99 10.84C7.06 9.91 6.59 8.77 6.59 7.45ZM11.35 13.91C12.15 13.91 12.89 13.77 13.58 13.51C13.36 13.63 13.07 13.75 12.74 13.86C11.92 14.12 11.08 14.13 10.26 13.86C10.17 13.83 10.09 13.8 10.01 13.77C10.44 13.86 10.89 13.91 11.35 13.91ZM19.46 23.48C18.87 24.05 18.07 24.34 17.08 24.34L5.91 24.34C4.93 24.34 4.13 24.05 3.54 23.48C2.94 22.91 2.65 22.15 2.65 21.15C2.65 20.71 2.66 20.26 2.69 19.83C2.72 19.41 2.78 18.94 2.87 18.45C2.96 17.96 3.07 17.49 3.2 17.07C3.34 16.66 3.52 16.24 3.74 15.85C3.96 15.45 4.22 15.12 4.51 14.84C4.79 14.57 5.14 14.35 5.55 14.18C5.96 14.02 6.42 13.94 6.92 13.94C6.94 13.94 7.03 13.96 7.38 14.19C7.66 14.37 7.98 14.58 8.33 14.81C8.69 15.04 9.17 15.25 9.75 15.44C10.9 15.82 12.1 15.82 13.25 15.44C13.82 15.25 14.3 15.04 14.67 14.81C15.02 14.58 15.34 14.37 15.62 14.19C15.96 13.96 16.06 13.94 16.07 13.94C16.57 13.94 17.03 14.02 17.44 14.18C17.85 14.35 18.21 14.57 18.49 14.84C18.78 15.12 19.03 15.45 19.26 15.85C19.48 16.24 19.66 16.66 19.79 17.07C19.93 17.49 20.04 17.96 20.13 18.45C20.21 18.94 20.27 19.41 20.3 19.83C20.33 20.26 20.35 20.7 20.35 21.15C20.35 22.15 20.06 22.91 19.46 23.48Z" />
</svg>