<svg version="1.2" baseProfile="tiny-ps" xmlns="http://www.w3.org/2000/svg" viewBox="0 0 358 99" width="358" height="99">
	<title>Shape 43</title>
	<style>
		tspan { white-space:pre }
		.shp0 { fill: #131313 } 
	</style>
	<path id="Shape 43" class="shp0" d="M51.45 83.56C33.05 83.56 18.08 68.5 18.08 49.98C18.08 31.47 33.05 16.41 51.45 16.41C69.85 16.41 84.82 31.47 84.82 49.98C84.82 68.5 69.85 83.56 51.45 83.56ZM51.45 19.62C34.81 19.62 21.28 33.24 21.28 49.98C21.28 66.73 34.81 80.35 51.45 80.35C68.09 80.35 81.62 66.73 81.62 49.98C81.62 33.24 68.09 19.62 51.45 19.62ZM19.2 41.74C14.75 33.94 2.04 38.23 3.89 44.37C4.14 45.16 4.56 45.99 5.25 46.52C5.88 47 7 47.29 7.68 46.77C7.93 46.58 8.24 45.82 7.82 45.61C8.62 46.01 8.96 46.91 8.61 47.66C8.3 48.24 7.8 48.62 7.22 48.83C6.89 48.94 6.54 49 6.18 49.02C4.85 49.07 3.53 48.46 2.61 47.51C1.16 46.02 0.7 43.75 1.18 41.74C2.3 37.62 6.55 35.68 10.85 35.97C14.52 36.21 17.62 37.92 19.41 40.54C19.35 40.94 19.27 41.34 19.2 41.74ZM18.77 34.43C18.77 34.38 18.78 34.32 18.79 34.27C18.81 33.98 18.79 33.67 18.66 33.42C18.42 32.99 17.84 32.86 17.73 32.32C17.68 32.05 17.73 31.73 17.99 31.56C18.01 31.55 18.03 31.54 18.05 31.54C18.03 31.54 17.62 31.54 17.25 31.78C16.87 32.03 16.53 32.53 16.73 33.54C16.73 33.54 17.08 34.55 16.54 34.89C15.62 35.49 14.65 33.71 14.42 33.18C14.16 32.59 14.03 31.92 14.06 31.28C14.09 30.62 14.23 29.58 15.13 28.51C15.74 27.78 17.59 26.21 20.02 25.9C19.86 25.65 19.68 25.41 19.48 25.19C18.54 25.18 17.45 25.26 16.28 25.55C14.16 26.07 12.34 27.21 10.44 28.3C8.93 29.17 7.15 29.88 5.62 29.04C5.48 28.97 5.22 28.73 5.43 28.58C5.51 28.51 5.63 28.54 5.72 28.55C5.8 28.55 5.88 28.54 5.91 28.45C5.96 28.35 5.9 28.3 5.82 28.27C5.68 28.23 5.52 28.28 5.41 28.39C5.05 28.79 5.28 29.3 5.55 29.6C6.53 30.7 8.28 31.71 9.96 31.37C11.66 31.02 12.64 30.34 13.92 29.46C12.68 31.86 13.28 33.89 14.38 35.08C14.49 35.2 14.6 35.31 14.72 35.41L14.73 35.4C15.01 35.69 15.35 35.91 15.73 36.06C15.87 36.11 16.01 36.15 16.16 36.18C16.68 36.28 17.24 36.21 17.77 35.87C18.26 35.56 18.58 35.1 18.72 34.61C18.74 34.55 18.75 34.49 18.77 34.43ZM31.03 9.22C27.16 6.68 22.42 6.46 18 9.1C13.84 11.58 11.12 16.25 12.69 21.06C13.51 23.36 15.37 25.32 17.66 25.87C19.11 26.22 20.71 25.98 21.91 25.07C22.24 24.83 22.52 24.54 22.75 24.22C23.16 23.64 23.39 22.94 23.3 22.16C23.16 21.18 22.27 20.51 21.27 20.63C21.8 20.57 21.99 21.52 21.88 21.87C21.58 22.83 20.36 23.26 19.47 23.19C18.49 23.1 17.58 22.55 16.86 21.92C10.68 16.5 22.54 2.22 31.89 11.66C32.66 12.43 33.38 13.44 34.05 14.28C34.01 14.25 33.97 14.21 33.93 14.18C33.69 14.01 33.45 13.85 33.19 13.68C32.69 13.33 32.15 13.01 31.56 12.71C30.98 12.4 30.37 12.09 29.71 11.85C29.05 11.61 28.35 11.4 27.63 11.28C26.91 11.17 26.16 11.16 25.43 11.27C25.07 11.32 24.71 11.41 24.37 11.54C24.2 11.61 24.04 11.66 23.86 11.75C23.74 11.81 23.52 11.94 23.38 12.04C22.78 12.48 22.36 13.09 22.15 13.74C22.05 14.06 22 14.4 22.01 14.72C22.01 14.8 22.03 14.88 22.04 14.96C22.05 15.04 22.06 15.12 22.08 15.19C22.11 15.27 22.12 15.33 22.15 15.43C22.18 15.49 22.2 15.55 22.23 15.61C22.37 15.9 22.54 16.13 22.74 16.31C22.94 16.49 23.17 16.61 23.4 16.68C23.63 16.76 23.85 16.77 24.06 16.74C24.26 16.71 24.43 16.64 24.57 16.55C24.71 16.47 24.81 16.36 24.89 16.27C24.91 16.24 24.93 16.22 24.95 16.2C25.16 15.99 25.3 15.72 25.35 15.41C25.45 14.66 24.93 13.97 24.18 13.87C23.51 13.78 22.89 14.21 22.7 14.85C22.7 14.81 22.7 14.77 22.71 14.72C22.72 14.49 22.77 14.24 22.87 14.01C23.07 13.54 23.44 13.1 23.9 12.8C24.03 12.72 24.09 12.68 24.27 12.6C24.38 12.55 24.54 12.51 24.68 12.46C24.82 12.4 24.97 12.38 25.12 12.34C25.27 12.3 25.42 12.28 25.58 12.26C26.19 12.18 26.83 12.2 27.47 12.31C28.11 12.4 28.75 12.58 29.37 12.79C29.98 13.02 30.59 13.26 31.16 13.53C31.73 13.8 32.31 14.06 32.8 14.35C33.06 14.48 33.3 14.62 33.54 14.75C33.77 14.9 34 15.04 34.21 15.18C34.65 15.45 35.02 15.73 35.35 15.97C35.52 16.1 35.68 16.21 35.83 16.32C35.97 16.44 36.1 16.54 36.21 16.64C36.24 16.66 36.27 16.68 36.29 16.7C37.25 17.6 38.27 18.39 39.34 19.08C39.91 18.71 40.5 18.38 41.11 18.08C40.48 17.65 39.85 17.19 39.23 16.68C39.68 16.52 40.75 16.11 41.66 15.42C42.16 15.05 42.67 14.58 42.93 14C43.15 13.47 43.24 12.78 42.98 12.25C42.85 12 42.66 11.8 42.36 11.79C42.22 11.78 42.08 11.87 42.03 12.01C42 12.08 42 12.16 42.1 12.2C42.18 12.24 42.23 12.19 42.28 12.13C42.33 12.06 42.38 11.95 42.48 11.93C42.6 11.91 42.67 12 42.7 12.12C42.76 12.38 42.61 12.63 42.48 12.85C42.38 13.01 42.26 13.15 42.09 13.27C41.46 13.75 40.62 13.59 39.96 13.99C39.29 14.38 39.02 15.33 39.01 16.5C38.68 16.21 38.35 15.91 38.04 15.61C37.18 14.37 36.8 12.91 37.49 11.09C38.54 8.33 39.12 5.99 37.48 3.27C37.2 2.75 36.85 2.26 36.44 1.87C35.76 1.23 34.62 0.61 33.75 1.3C33.5 1.5 33.4 1.84 33.5 2.15C33.55 2.33 33.67 2.46 33.89 2.39C34.09 2.32 34.11 2.17 34.1 1.99C34.09 1.79 34.03 1.55 34.17 1.37C34.51 0.96 35.08 1.55 35.2 1.88C35.3 2.18 35.3 2.51 35.23 2.84C35.05 3.74 34.76 5.02 34.52 6.08C34.39 6.56 34.29 7.01 34.23 7.45C34.22 7.47 34.22 7.48 34.22 7.49L34.22 7.49C33.8 10.42 34.76 12.61 35.94 14.12C36.03 14.25 36.12 14.38 36.22 14.51C36.22 14.51 32.76 10.36 31.03 9.22ZM18.41 41.25C17.92 40.93 17.41 40.65 16.88 40.43C16.36 40.21 15.81 40.04 15.26 39.98C15.12 39.96 14.98 39.94 14.85 39.94C14.71 39.94 14.57 39.92 14.44 39.94C14.31 39.95 14.16 39.94 14.05 39.96C13.88 39.99 13.81 40 13.69 40.04C13.22 40.19 12.8 40.46 12.52 40.8C12.38 40.97 12.28 41.15 12.21 41.34C12.19 41.38 12.19 41.41 12.18 41.45C12.48 40.97 13.12 40.76 13.68 40.98C14.3 41.23 14.59 41.9 14.33 42.49C14.22 42.73 14.03 42.92 13.81 43.04C13.78 43.06 13.76 43.07 13.74 43.09C13.65 43.14 13.54 43.21 13.4 43.24C13.26 43.29 13.09 43.3 12.91 43.29C12.73 43.26 12.53 43.2 12.35 43.1C12.18 42.98 12.01 42.83 11.87 42.64C11.74 42.45 11.64 42.23 11.59 41.96C11.58 41.91 11.58 41.85 11.57 41.8C11.56 41.71 11.57 41.66 11.56 41.59C11.56 41.53 11.57 41.46 11.58 41.39C11.59 41.33 11.59 41.26 11.61 41.19C11.67 40.92 11.79 40.66 11.96 40.42C12.29 39.94 12.79 39.54 13.41 39.31C13.56 39.26 13.77 39.2 13.9 39.18C14.07 39.15 14.22 39.14 14.39 39.12C14.71 39.09 15.04 39.09 15.36 39.14C16.02 39.21 16.66 39.39 17.26 39.63C17.85 39.89 18.4 40.21 18.92 40.55C19.11 40.68 19.29 40.82 19.47 40.96C19.5 41.33 19.52 41.69 19.55 42.06C19.18 41.78 18.8 41.51 18.41 41.25ZM82.48 41.74C86.93 33.94 99.64 38.23 97.79 44.37C97.55 45.16 97.12 45.99 96.43 46.52C95.8 47 94.68 47.29 94 46.77C93.75 46.58 93.44 45.82 93.86 45.61C93.06 46.01 92.72 46.91 93.07 47.66C93.38 48.24 93.88 48.62 94.46 48.83C94.79 48.94 95.14 49 95.5 49.02C96.83 49.07 98.15 48.46 99.07 47.51C100.52 46.02 100.98 43.75 100.5 41.74C99.38 37.62 95.13 35.68 90.83 35.97C87.16 36.21 84.06 37.92 82.27 40.54C82.33 40.94 82.41 41.34 82.48 41.74ZM82.91 34.43C82.91 34.38 82.9 34.32 82.89 34.27C82.87 33.98 82.89 33.67 83.02 33.42C83.26 32.99 83.85 32.86 83.95 32.32C84 32.05 83.95 31.73 83.69 31.56C83.67 31.55 83.65 31.54 83.63 31.54C83.65 31.54 84.06 31.54 84.43 31.78C84.81 32.03 85.15 32.53 84.95 33.54C84.95 33.54 84.6 34.55 85.14 34.89C86.06 35.49 87.03 33.71 87.26 33.18C87.52 32.59 87.65 31.92 87.62 31.28C87.59 30.62 87.45 29.58 86.55 28.51C85.94 27.78 84.09 26.21 81.66 25.9C81.82 25.65 82 25.41 82.2 25.19C83.14 25.18 84.23 25.26 85.4 25.55C87.52 26.07 89.34 27.21 91.24 28.3C92.75 29.17 94.53 29.88 96.06 29.04C96.2 28.97 96.46 28.73 96.25 28.58C96.17 28.51 96.06 28.54 95.96 28.55C95.88 28.55 95.8 28.54 95.77 28.45C95.72 28.35 95.78 28.3 95.86 28.27C96 28.23 96.16 28.28 96.27 28.39C96.63 28.79 96.4 29.3 96.13 29.6C95.15 30.7 93.4 31.71 91.72 31.37C90.02 31.02 89.04 30.34 87.76 29.46C89 31.86 88.4 33.89 87.3 35.08C87.19 35.2 87.08 35.31 86.96 35.41L86.95 35.4C86.67 35.69 86.33 35.91 85.95 36.06C85.81 36.11 85.67 36.15 85.52 36.18C85 36.28 84.44 36.21 83.91 35.87C83.42 35.56 83.1 35.1 82.96 34.61C82.94 34.55 82.93 34.49 82.91 34.43ZM70.65 9.22C74.52 6.68 79.26 6.46 83.68 9.1C87.84 11.58 90.56 16.25 88.99 21.06C88.17 23.36 86.31 25.32 84.02 25.87C82.57 26.22 80.97 25.98 79.77 25.07C79.44 24.83 79.16 24.54 78.93 24.22C78.52 23.64 78.29 22.94 78.38 22.16C78.52 21.18 79.41 20.51 80.41 20.63C79.88 20.57 79.69 21.52 79.8 21.87C80.1 22.83 81.32 23.26 82.21 23.19C83.19 23.1 84.1 22.55 84.82 21.92C91 16.5 79.14 2.22 69.79 11.66C69.02 12.43 68.3 13.44 67.63 14.28C67.67 14.25 67.71 14.21 67.75 14.18C67.99 14.01 68.23 13.85 68.49 13.68C68.99 13.33 69.53 13.01 70.12 12.71C70.7 12.4 71.31 12.09 71.97 11.85C72.63 11.61 73.33 11.4 74.05 11.28C74.77 11.17 75.52 11.16 76.25 11.27C76.61 11.32 76.97 11.41 77.31 11.54C77.48 11.61 77.64 11.66 77.82 11.75C77.94 11.81 78.16 11.94 78.3 12.04C78.9 12.48 79.32 13.09 79.53 13.74C79.63 14.06 79.68 14.4 79.67 14.72C79.67 14.8 79.65 14.88 79.64 14.96C79.63 15.04 79.62 15.12 79.6 15.19C79.57 15.27 79.56 15.33 79.53 15.43C79.5 15.49 79.48 15.55 79.45 15.61C79.31 15.9 79.14 16.13 78.94 16.31C78.74 16.49 78.51 16.61 78.28 16.68C78.05 16.76 77.83 16.77 77.62 16.74C77.42 16.71 77.25 16.64 77.11 16.55C76.97 16.47 76.87 16.36 76.79 16.27C76.77 16.24 76.75 16.22 76.73 16.2C76.52 15.99 76.38 15.72 76.33 15.41C76.23 14.66 76.75 13.97 77.5 13.87C78.17 13.78 78.8 14.21 78.98 14.85C78.98 14.81 78.98 14.77 78.97 14.72C78.96 14.49 78.91 14.24 78.81 14.01C78.61 13.54 78.24 13.1 77.78 12.8C77.65 12.72 77.59 12.68 77.41 12.6C77.3 12.55 77.14 12.51 77 12.46C76.86 12.4 76.71 12.38 76.56 12.34C76.41 12.3 76.26 12.28 76.1 12.26C75.49 12.18 74.85 12.2 74.21 12.31C73.57 12.4 72.93 12.58 72.31 12.79C71.7 13.02 71.09 13.26 70.52 13.53C69.95 13.8 69.37 14.06 68.88 14.35C68.62 14.48 68.38 14.62 68.14 14.75C67.91 14.9 67.68 15.04 67.47 15.18C67.03 15.45 66.66 15.73 66.33 15.97C66.16 16.1 66 16.21 65.85 16.32C65.71 16.44 65.58 16.54 65.47 16.64C65.44 16.66 65.41 16.68 65.39 16.7C64.43 17.6 63.41 18.39 62.34 19.08C61.77 18.71 61.18 18.38 60.57 18.08C61.2 17.65 61.83 17.19 62.45 16.68C62 16.52 60.93 16.11 60.02 15.42C59.52 15.05 59.01 14.58 58.75 14C58.53 13.47 58.44 12.78 58.7 12.25C58.83 12 59.02 11.8 59.32 11.79C59.47 11.78 59.6 11.87 59.65 12.01C59.68 12.08 59.68 12.16 59.59 12.2C59.5 12.24 59.45 12.19 59.4 12.13C59.35 12.06 59.3 11.95 59.2 11.93C59.08 11.91 59.01 12 58.98 12.12C58.92 12.38 59.07 12.63 59.2 12.85C59.3 13.01 59.42 13.15 59.59 13.27C60.22 13.75 61.06 13.59 61.72 13.99C62.39 14.38 62.66 15.33 62.67 16.5C63 16.21 63.33 15.91 63.64 15.61C64.5 14.37 64.88 12.91 64.19 11.09C63.14 8.33 62.56 5.99 64.2 3.27C64.48 2.75 64.83 2.26 65.24 1.87C65.92 1.23 67.06 0.61 67.93 1.3C68.18 1.5 68.28 1.84 68.18 2.15C68.13 2.33 68.01 2.46 67.79 2.39C67.59 2.32 67.57 2.17 67.58 1.99C67.59 1.79 67.65 1.55 67.51 1.37C67.17 0.96 66.6 1.55 66.48 1.88C66.38 2.18 66.38 2.51 66.45 2.84C66.63 3.74 66.92 5.02 67.16 6.08C67.29 6.56 67.39 7.01 67.45 7.45C67.46 7.47 67.46 7.48 67.46 7.49L67.46 7.49C67.88 10.42 66.92 12.61 65.74 14.12C65.65 14.25 65.56 14.38 65.46 14.51C65.46 14.51 68.92 10.36 70.65 9.22ZM83.27 41.25C83.76 40.93 84.27 40.65 84.8 40.43C85.32 40.21 85.87 40.04 86.42 39.98C86.56 39.96 86.7 39.94 86.83 39.94C86.97 39.94 87.11 39.92 87.24 39.94C87.37 39.95 87.52 39.94 87.63 39.96C87.8 39.99 87.87 40 87.99 40.04C88.46 40.19 88.88 40.46 89.16 40.8C89.3 40.97 89.4 41.15 89.47 41.34C89.49 41.38 89.49 41.41 89.5 41.45C89.2 40.97 88.56 40.76 88 40.98C87.38 41.23 87.09 41.9 87.35 42.49C87.46 42.73 87.65 42.92 87.87 43.04C87.9 43.06 87.92 43.07 87.94 43.09C88.03 43.14 88.14 43.21 88.28 43.24C88.42 43.29 88.59 43.3 88.77 43.29C88.95 43.26 89.15 43.2 89.33 43.1C89.5 42.98 89.67 42.83 89.81 42.64C89.94 42.45 90.04 42.23 90.09 41.96C90.1 41.91 90.1 41.85 90.11 41.8C90.12 41.71 90.11 41.66 90.12 41.59C90.12 41.53 90.11 41.46 90.1 41.39C90.09 41.33 90.09 41.26 90.07 41.19C90.01 40.92 89.89 40.66 89.72 40.42C89.39 39.94 88.89 39.54 88.27 39.31C88.12 39.26 87.91 39.2 87.78 39.18C87.61 39.15 87.46 39.14 87.3 39.12C86.97 39.09 86.64 39.09 86.32 39.14C85.66 39.21 85.02 39.39 84.42 39.63C83.83 39.89 83.28 40.21 82.76 40.55C82.57 40.68 82.39 40.82 82.21 40.96C82.18 41.33 82.16 41.69 82.13 42.06C82.5 41.78 82.88 41.51 83.27 41.25ZM19.2 57.26C14.75 65.06 2.04 60.78 3.89 54.64C4.14 53.85 4.56 53.02 5.25 52.49C5.88 52 7 51.71 7.68 52.24C7.93 52.43 8.24 53.19 7.82 53.4C8.62 53 8.96 52.1 8.61 51.34C8.3 50.76 7.8 50.38 7.22 50.18C6.89 50.06 6.54 50 6.18 49.99C4.85 49.93 3.53 50.55 2.61 51.49C1.16 52.99 0.7 55.26 1.18 57.26C2.3 61.38 6.55 63.32 10.85 63.04C14.52 62.8 17.62 61.08 19.41 58.47C19.35 58.07 19.27 57.66 19.2 57.26ZM18.77 64.58C18.77 64.63 18.78 64.69 18.79 64.74C18.81 65.03 18.79 65.33 18.66 65.58C18.42 66.02 17.84 66.15 17.73 66.68C17.68 66.95 17.73 67.28 17.99 67.44C18.01 67.46 18.03 67.47 18.05 67.47C18.03 67.47 17.62 67.46 17.25 67.23C16.87 66.98 16.53 66.48 16.73 65.47C16.73 65.47 17.08 64.46 16.54 64.11C15.62 63.52 14.65 65.29 14.42 65.82C14.16 66.42 14.03 67.08 14.06 67.72C14.09 68.39 14.23 69.42 15.13 70.5C15.74 71.22 17.59 72.8 20.02 73.11C19.86 73.36 19.68 73.59 19.48 73.82C18.54 73.82 17.45 73.75 16.28 73.46C14.16 72.93 12.34 71.8 10.44 70.7C8.93 69.83 7.15 69.13 5.62 69.96C5.48 70.04 5.22 70.27 5.43 70.43C5.51 70.49 5.63 70.46 5.72 70.46C5.8 70.45 5.88 70.47 5.91 70.56C5.96 70.65 5.9 70.71 5.82 70.73C5.68 70.77 5.52 70.73 5.41 70.61C5.05 70.22 5.28 69.71 5.55 69.4C6.53 68.3 8.28 67.3 9.96 67.64C11.66 67.98 12.64 68.66 13.92 69.54C12.68 67.15 13.28 65.12 14.38 63.92C14.49 63.8 14.6 63.69 14.72 63.59L14.73 63.6C15.01 63.32 15.35 63.09 15.73 62.95C15.87 62.9 16.01 62.85 16.16 62.83C16.68 62.72 17.24 62.79 17.77 63.14C18.26 63.45 18.58 63.91 18.72 64.39C18.74 64.45 18.75 64.51 18.77 64.58ZM31.03 89.79C27.16 92.32 22.42 92.54 18 89.91C13.84 87.42 11.12 82.76 12.69 77.94C13.51 75.65 15.37 73.69 17.66 73.13C19.11 72.78 20.71 73.02 21.91 73.93C22.24 74.18 22.52 74.47 22.75 74.79C23.16 75.37 23.39 76.07 23.3 76.84C23.16 77.82 22.27 78.49 21.27 78.38C21.8 78.43 21.99 77.48 21.88 77.14C21.58 76.18 20.36 75.74 19.47 75.82C18.49 75.9 17.58 76.45 16.86 77.09C10.68 82.5 22.54 96.79 31.89 87.34C32.66 86.57 33.38 85.57 34.05 84.72C34.01 84.76 33.97 84.79 33.93 84.83C33.69 85 33.45 85.15 33.19 85.33C32.69 85.68 32.15 85.99 31.56 86.3C30.98 86.6 30.37 86.91 29.71 87.16C29.05 87.4 28.35 87.6 27.63 87.72C26.91 87.83 26.16 87.85 25.43 87.74C25.07 87.69 24.71 87.59 24.37 87.47C24.2 87.39 24.04 87.35 23.86 87.25C23.74 87.19 23.52 87.07 23.38 86.96C22.78 86.52 22.36 85.91 22.15 85.27C22.05 84.94 22 84.61 22.01 84.28C22.01 84.2 22.03 84.12 22.04 84.04C22.05 83.96 22.06 83.89 22.08 83.81C22.11 83.73 22.12 83.67 22.15 83.58C22.18 83.52 22.2 83.45 22.23 83.39C22.37 83.1 22.54 82.88 22.74 82.7C22.94 82.52 23.17 82.4 23.4 82.32C23.63 82.25 23.85 82.24 24.06 82.26C24.26 82.3 24.43 82.37 24.57 82.46C24.71 82.54 24.81 82.65 24.89 82.73C24.91 82.76 24.93 82.78 24.95 82.81C25.16 83.02 25.3 83.28 25.35 83.6C25.45 84.34 24.93 85.03 24.18 85.13C23.51 85.22 22.89 84.79 22.7 84.15C22.7 84.2 22.7 84.24 22.71 84.28C22.72 84.52 22.77 84.76 22.87 85C23.07 85.47 23.44 85.91 23.9 86.21C24.03 86.29 24.09 86.33 24.27 86.4C24.38 86.46 24.54 86.5 24.68 86.55C24.82 86.6 24.97 86.63 25.12 86.66C25.27 86.7 25.42 86.72 25.58 86.74C26.19 86.83 26.83 86.8 27.47 86.7C28.11 86.6 28.75 86.43 29.37 86.21C29.98 85.99 30.59 85.75 31.16 85.48C31.73 85.21 32.31 84.95 32.8 84.66C33.06 84.52 33.3 84.38 33.54 84.25C33.77 84.11 34 83.96 34.21 83.82C34.65 83.56 35.02 83.28 35.35 83.03C35.52 82.91 35.68 82.79 35.83 82.69C35.97 82.57 36.1 82.46 36.21 82.37C36.24 82.34 36.27 82.33 36.29 82.3C37.25 81.41 38.27 80.61 39.34 79.93C39.91 80.3 40.5 80.63 41.11 80.93C40.48 81.35 39.85 81.82 39.23 82.33C39.68 82.48 40.75 82.9 41.66 83.58C42.16 83.96 42.67 84.42 42.93 85.01C43.15 85.54 43.24 86.22 42.98 86.76C42.85 87.01 42.66 87.21 42.36 87.22C42.22 87.22 42.08 87.13 42.03 87C42 86.92 42 86.84 42.1 86.81C42.18 86.77 42.23 86.82 42.28 86.88C42.33 86.95 42.38 87.05 42.48 87.07C42.6 87.1 42.67 87 42.7 86.89C42.76 86.63 42.61 86.37 42.48 86.16C42.38 86 42.26 85.86 42.09 85.73C41.46 85.25 40.62 85.41 39.96 85.02C39.29 84.63 39.02 83.68 39.01 82.51C38.68 82.8 38.35 83.09 38.04 83.4C37.18 84.63 36.8 86.1 37.49 87.92C38.54 90.67 39.12 93.01 37.48 95.73C37.2 96.26 36.85 96.74 36.44 97.13C35.76 97.78 34.62 98.4 33.75 97.7C33.5 97.5 33.4 97.17 33.5 96.85C33.55 96.68 33.67 96.55 33.89 96.62C34.09 96.68 34.11 96.84 34.1 97.01C34.09 97.22 34.03 97.46 34.17 97.63C34.51 98.05 35.08 97.46 35.2 97.12C35.3 96.83 35.3 96.49 35.23 96.17C35.05 95.27 34.76 93.99 34.52 92.92C34.39 92.45 34.29 91.99 34.23 91.55C34.22 91.54 34.22 91.53 34.22 91.51L34.22 91.51C33.8 88.59 34.76 86.4 35.94 84.89C36.03 84.76 36.12 84.62 36.22 84.49C36.22 84.49 32.76 88.65 31.03 89.79ZM18.41 57.76C17.92 58.07 17.41 58.35 16.88 58.57C16.36 58.8 15.81 58.96 15.26 59.03C15.12 59.05 14.98 59.06 14.85 59.06C14.71 59.07 14.57 59.08 14.44 59.07C14.31 59.06 14.16 59.06 14.05 59.04C13.88 59.02 13.81 59 13.69 58.96C13.22 58.82 12.8 58.55 12.52 58.21C12.38 58.04 12.28 57.85 12.21 57.66C12.19 57.63 12.19 57.59 12.18 57.56C12.48 58.04 13.12 58.25 13.68 58.03C14.3 57.78 14.59 57.1 14.33 56.52C14.22 56.27 14.03 56.09 13.81 55.97C13.78 55.95 13.76 55.93 13.74 55.92C13.65 55.86 13.54 55.8 13.4 55.76C13.26 55.72 13.09 55.7 12.91 55.72C12.73 55.74 12.53 55.8 12.35 55.91C12.18 56.02 12.01 56.17 11.87 56.36C11.74 56.55 11.64 56.77 11.59 57.04C11.58 57.1 11.58 57.15 11.57 57.21C11.56 57.29 11.57 57.34 11.56 57.41C11.56 57.48 11.57 57.55 11.58 57.61C11.59 57.68 11.59 57.75 11.61 57.81C11.67 58.08 11.79 58.34 11.96 58.58C12.29 59.06 12.79 59.47 13.41 59.69C13.56 59.75 13.77 59.8 13.9 59.82C14.07 59.86 14.22 59.86 14.39 59.88C14.71 59.91 15.04 59.91 15.36 59.87C16.02 59.8 16.66 59.62 17.26 59.37C17.85 59.11 18.4 58.8 18.92 58.45C19.11 58.32 19.29 58.18 19.47 58.05C19.5 57.68 19.52 57.31 19.55 56.95C19.18 57.23 18.8 57.5 18.41 57.76ZM82.48 57.26C86.93 65.06 99.64 60.78 97.79 54.64C97.55 53.85 97.12 53.02 96.43 52.49C95.8 52 94.68 51.71 94 52.24C93.75 52.43 93.44 53.19 93.86 53.4C93.06 53 92.72 52.1 93.07 51.34C93.38 50.76 93.88 50.38 94.46 50.18C94.79 50.06 95.14 50 95.5 49.99C96.83 49.93 98.15 50.55 99.07 51.49C100.52 52.99 100.98 55.26 100.5 57.26C99.38 61.38 95.13 63.32 90.83 63.04C87.16 62.8 84.06 61.08 82.27 58.47C82.33 58.07 82.41 57.66 82.48 57.26ZM82.91 64.58C82.91 64.63 82.9 64.69 82.89 64.74C82.87 65.03 82.89 65.33 83.02 65.58C83.26 66.02 83.85 66.15 83.95 66.68C84 66.95 83.95 67.28 83.69 67.44C83.67 67.46 83.65 67.47 83.63 67.47C83.65 67.47 84.06 67.46 84.43 67.23C84.81 66.98 85.15 66.48 84.95 65.47C84.95 65.47 84.6 64.46 85.14 64.11C86.06 63.52 87.03 65.29 87.26 65.82C87.52 66.42 87.65 67.08 87.62 67.72C87.59 68.39 87.45 69.42 86.55 70.5C85.94 71.22 84.09 72.8 81.66 73.11C81.82 73.36 82 73.59 82.2 73.82C83.14 73.82 84.23 73.75 85.4 73.46C87.52 72.93 89.34 71.8 91.24 70.7C92.75 69.83 94.53 69.13 96.06 69.96C96.2 70.04 96.46 70.27 96.25 70.43C96.17 70.49 96.06 70.46 95.96 70.46C95.88 70.45 95.8 70.47 95.77 70.56C95.72 70.65 95.78 70.71 95.86 70.73C96 70.77 96.16 70.73 96.27 70.61C96.63 70.22 96.4 69.71 96.13 69.4C95.15 68.3 93.4 67.3 91.72 67.64C90.02 67.98 89.04 68.66 87.76 69.54C89 67.15 88.4 65.12 87.3 63.92C87.19 63.8 87.08 63.69 86.96 63.59L86.95 63.6C86.67 63.32 86.33 63.09 85.95 62.95C85.81 62.9 85.67 62.85 85.52 62.83C85 62.72 84.44 62.79 83.91 63.14C83.42 63.45 83.1 63.91 82.96 64.39C82.94 64.45 82.93 64.51 82.91 64.58ZM70.65 89.79C74.52 92.32 79.26 92.54 83.68 89.91C87.84 87.42 90.56 82.76 88.99 77.94C88.17 75.65 86.31 73.69 84.02 73.13C82.57 72.78 80.97 73.02 79.77 73.93C79.44 74.18 79.16 74.47 78.93 74.79C78.52 75.37 78.29 76.07 78.38 76.84C78.52 77.82 79.41 78.49 80.41 78.38C79.88 78.43 79.69 77.48 79.8 77.14C80.1 76.18 81.32 75.74 82.21 75.82C83.19 75.9 84.1 76.45 84.82 77.09C91 82.5 79.14 96.79 69.79 87.34C69.02 86.57 68.3 85.57 67.63 84.72C67.67 84.76 67.71 84.79 67.75 84.83C67.99 85 68.23 85.15 68.49 85.33C68.99 85.68 69.53 85.99 70.12 86.3C70.7 86.6 71.31 86.91 71.97 87.16C72.63 87.4 73.33 87.6 74.05 87.72C74.77 87.83 75.52 87.85 76.25 87.74C76.61 87.69 76.97 87.59 77.31 87.47C77.48 87.39 77.64 87.35 77.82 87.25C77.94 87.19 78.16 87.07 78.3 86.96C78.9 86.52 79.32 85.91 79.53 85.27C79.63 84.94 79.68 84.61 79.67 84.28C79.67 84.2 79.65 84.12 79.64 84.04C79.63 83.96 79.62 83.89 79.6 83.81C79.57 83.73 79.56 83.67 79.53 83.58C79.5 83.52 79.48 83.45 79.45 83.39C79.31 83.1 79.14 82.88 78.94 82.7C78.74 82.52 78.51 82.4 78.28 82.32C78.05 82.25 77.83 82.24 77.62 82.26C77.42 82.3 77.25 82.37 77.11 82.46C76.97 82.54 76.87 82.65 76.79 82.73C76.77 82.76 76.75 82.78 76.73 82.81C76.52 83.02 76.38 83.28 76.33 83.6C76.23 84.34 76.75 85.03 77.5 85.13C78.17 85.22 78.8 84.79 78.98 84.15C78.98 84.2 78.98 84.24 78.97 84.28C78.96 84.52 78.91 84.76 78.81 85C78.61 85.47 78.24 85.91 77.78 86.21C77.65 86.29 77.59 86.33 77.41 86.4C77.3 86.46 77.14 86.5 77 86.55C76.86 86.6 76.71 86.63 76.56 86.66C76.41 86.7 76.26 86.72 76.1 86.74C75.49 86.83 74.85 86.8 74.21 86.7C73.57 86.6 72.93 86.43 72.31 86.21C71.7 85.99 71.09 85.75 70.52 85.48C69.95 85.21 69.37 84.95 68.88 84.66C68.62 84.52 68.38 84.38 68.14 84.25C67.91 84.11 67.68 83.96 67.47 83.82C67.03 83.56 66.66 83.28 66.33 83.03C66.16 82.91 66 82.79 65.85 82.69C65.71 82.57 65.58 82.46 65.47 82.37C65.44 82.34 65.41 82.33 65.39 82.3C64.43 81.41 63.41 80.61 62.34 79.93C61.77 80.3 61.18 80.63 60.57 80.93C61.2 81.35 61.83 81.82 62.45 82.33C62 82.48 60.93 82.9 60.02 83.58C59.52 83.96 59.01 84.42 58.75 85.01C58.53 85.54 58.44 86.22 58.7 86.76C58.83 87.01 59.02 87.21 59.32 87.22C59.47 87.22 59.6 87.13 59.65 87C59.68 86.92 59.68 86.84 59.59 86.81C59.5 86.77 59.45 86.82 59.4 86.88C59.35 86.95 59.3 87.05 59.2 87.07C59.08 87.1 59.01 87 58.98 86.89C58.92 86.63 59.07 86.37 59.2 86.16C59.3 86 59.42 85.86 59.59 85.73C60.22 85.25 61.06 85.41 61.72 85.02C62.39 84.63 62.66 83.68 62.67 82.51C63 82.8 63.33 83.09 63.64 83.4C64.5 84.63 64.88 86.1 64.19 87.92C63.14 90.67 62.56 93.01 64.2 95.73C64.48 96.26 64.83 96.74 65.24 97.13C65.92 97.78 67.06 98.4 67.93 97.7C68.18 97.5 68.28 97.17 68.18 96.85C68.13 96.68 68.01 96.55 67.79 96.62C67.59 96.68 67.57 96.84 67.58 97.01C67.59 97.22 67.65 97.46 67.51 97.63C67.17 98.05 66.6 97.46 66.48 97.12C66.38 96.83 66.38 96.49 66.45 96.17C66.63 95.27 66.92 93.99 67.16 92.92C67.29 92.45 67.39 91.99 67.45 91.55C67.46 91.54 67.46 91.53 67.46 91.51L67.46 91.51C67.88 88.59 66.92 86.4 65.74 84.89C65.65 84.76 65.56 84.62 65.46 84.49C65.46 84.49 68.92 88.65 70.65 89.79ZM83.27 57.76C83.76 58.07 84.27 58.35 84.8 58.57C85.32 58.8 85.87 58.96 86.42 59.03C86.56 59.05 86.7 59.06 86.83 59.06C86.97 59.07 87.11 59.08 87.24 59.07C87.37 59.06 87.52 59.06 87.63 59.04C87.8 59.02 87.87 59 87.99 58.96C88.46 58.82 88.88 58.55 89.16 58.21C89.3 58.04 89.4 57.85 89.47 57.66C89.49 57.63 89.49 57.59 89.5 57.56C89.2 58.04 88.56 58.25 88 58.03C87.38 57.78 87.09 57.1 87.35 56.52C87.46 56.27 87.65 56.09 87.87 55.97C87.9 55.95 87.92 55.93 87.94 55.92C88.03 55.86 88.14 55.8 88.28 55.76C88.42 55.72 88.59 55.7 88.77 55.72C88.95 55.74 89.15 55.8 89.33 55.91C89.5 56.02 89.67 56.17 89.81 56.36C89.94 56.55 90.04 56.77 90.09 57.04C90.1 57.1 90.1 57.15 90.11 57.21C90.12 57.29 90.11 57.34 90.12 57.41C90.12 57.48 90.11 57.55 90.1 57.61C90.09 57.68 90.09 57.75 90.07 57.81C90.01 58.08 89.89 58.34 89.72 58.58C89.39 59.06 88.89 59.47 88.27 59.69C88.12 59.75 87.91 59.8 87.78 59.82C87.61 59.86 87.46 59.86 87.3 59.88C86.97 59.91 86.64 59.91 86.32 59.87C85.66 59.8 85.02 59.62 84.42 59.37C83.83 59.11 83.28 58.8 82.76 58.45C82.57 58.32 82.39 58.18 82.21 58.05C82.18 57.68 82.16 57.31 82.13 56.95C82.5 57.23 82.88 57.5 83.27 57.76ZM44 43.67L41.58 47.95L36.9 39.99L41.94 39.99L44 43.67ZM48.89 52.4L46.59 56.48L48.66 59.99L54.24 59.99L69.67 33.18L64.77 33.18L51.22 56.58L48.89 52.4ZM58.92 56.52L62.14 62.8L40.51 62.8L57.19 33.18L33.23 33.18L35.78 37.16L50.21 37.16L33.46 66.79L69.29 66.79L61.33 52.35L58.92 56.52ZM112.27 56.46L130.76 56.46L130.76 60.28L112.27 60.28L112.27 56.46ZM113.04 38.72L130.95 38.72L130.95 42.94L118.52 55.85L114.72 53.54L125.31 42.54L113.04 42.54L113.04 38.72ZM147.17 56.46L137.37 56.46L135.75 60.28L131.16 60.28L139.95 38.72L144.57 38.72L138.91 52.61L145.61 52.61L142.58 45.22L146.04 42.23L153.36 60.28L148.76 60.28L147.17 56.46ZM181.31 55.32C180.82 56.11 180.24 56.81 179.58 57.45C178.91 58.09 178.18 58.64 177.39 59.1C176.59 59.56 175.73 59.91 174.82 60.16C173.9 60.41 172.95 60.53 171.97 60.53C170.46 60.53 169.03 60.24 167.7 59.67C166.36 59.09 165.2 58.31 164.21 57.31C163.22 56.32 162.44 55.15 161.87 53.8C161.29 52.46 161.01 51.02 161.01 49.5C161.01 47.98 161.29 46.55 161.87 45.21C162.44 43.86 163.22 42.69 164.21 41.69C165.2 40.7 166.36 39.91 167.7 39.34C169.03 38.76 170.46 38.47 171.97 38.47C172.95 38.47 173.9 38.6 174.82 38.84C175.73 39.09 176.59 39.45 177.39 39.91C178.18 40.37 178.91 40.92 179.58 41.56C180.24 42.19 180.82 42.9 181.31 43.68L177.72 45.99C177.15 44.88 176.37 43.99 175.37 43.33C174.37 42.66 173.23 42.33 171.97 42.33C171.07 42.33 170.22 42.52 169.43 42.9C168.63 43.28 167.94 43.79 167.35 44.44C166.75 45.08 166.28 45.84 165.94 46.71C165.59 47.59 165.42 48.52 165.42 49.5C165.42 50.49 165.59 51.42 165.94 52.29C166.28 53.16 166.75 53.92 167.35 54.57C167.94 55.22 168.63 55.73 169.43 56.11C170.22 56.49 171.07 56.68 171.97 56.68C173.23 56.68 174.37 56.35 175.37 55.68C176.37 55.01 177.15 54.12 177.72 53.01L181.31 55.32ZM192.08 38.44C193.59 38.44 195 38.74 196.31 39.32C197.61 39.91 198.75 40.7 199.71 41.69C200.66 42.69 201.41 43.86 201.96 45.21C202.5 46.55 202.77 47.98 202.77 49.5C202.77 50.8 202.57 52.03 202.18 53.2C201.8 54.37 201.25 55.43 200.53 56.37C199.82 57.32 198.97 58.12 197.98 58.79C196.99 59.46 195.9 59.94 194.71 60.22L192.57 56.56C193.43 56.5 194.21 56.26 194.91 55.86C195.62 55.46 196.23 54.95 196.74 54.32C197.25 53.7 197.64 52.97 197.93 52.14C198.22 51.3 198.36 50.43 198.36 49.5C198.36 48.54 198.2 47.62 197.88 46.76C197.57 45.9 197.13 45.15 196.58 44.51C196.03 43.88 195.37 43.37 194.61 43C193.84 42.63 193 42.45 192.08 42.45C191.16 42.45 190.32 42.63 189.56 43C188.79 43.37 188.13 43.88 187.57 44.51C187.01 45.15 186.57 45.9 186.25 46.76C185.93 47.62 185.78 48.54 185.78 49.5C185.78 50.47 185.93 51.38 186.25 52.24C186.57 53.11 187.01 53.86 187.57 54.49C188.13 55.13 188.79 55.63 189.56 56C190.32 56.37 191.16 56.56 192.08 56.56L192.08 60.56C190.57 60.56 189.16 60.27 187.86 59.7C186.55 59.12 185.42 58.33 184.46 57.33C183.5 56.32 182.75 55.15 182.21 53.8C181.67 52.46 181.4 51.02 181.4 49.5C181.4 47.98 181.67 46.55 182.21 45.21C182.75 43.86 183.5 42.69 184.46 41.69C185.42 40.7 186.55 39.91 187.86 39.32C189.16 38.74 190.57 38.44 192.08 38.44ZM204.6 60.28L204.6 38.72L208.89 38.72L208.89 60.28L204.6 60.28ZM209.53 55.97L218.96 55.97L218.96 60.28L211.92 60.28L209.53 55.97ZM220.49 60.28L220.49 38.72L224.78 38.72L224.78 60.28L220.49 60.28ZM225.42 55.97L234.85 55.97L234.85 60.28L227.81 60.28L225.42 55.97ZM250.74 38.72L250.77 42.33L240.7 42.33L240.67 56.71L250.74 56.71L250.74 60.28L236.38 60.28L236.38 38.72L250.74 38.72ZM248.2 51.69L243.42 51.69L241.43 47.69L248.2 47.69L248.2 51.69ZM270.91 55.32C270.42 56.11 269.85 56.81 269.18 57.45C268.52 58.09 267.79 58.64 266.99 59.1C266.2 59.56 265.34 59.91 264.42 60.16C263.5 60.41 262.56 60.53 261.58 60.53C260.07 60.53 258.64 60.24 257.31 59.67C255.97 59.09 254.8 58.31 253.82 57.31C252.83 56.32 252.04 55.15 251.47 53.8C250.9 52.46 250.62 51.02 250.62 49.5C250.62 47.98 250.9 46.55 251.47 45.21C252.04 43.86 252.83 42.69 253.82 41.69C254.8 40.7 255.97 39.91 257.31 39.34C258.64 38.76 260.07 38.47 261.58 38.47C262.56 38.47 263.5 38.6 264.42 38.84C265.34 39.09 266.2 39.45 266.99 39.91C267.79 40.37 268.52 40.92 269.18 41.56C269.85 42.19 270.42 42.9 270.91 43.68L267.33 45.99C266.76 44.88 265.97 43.99 264.97 43.33C263.97 42.66 262.84 42.33 261.58 42.33C260.68 42.33 259.83 42.52 259.04 42.9C258.24 43.28 257.55 43.79 256.95 44.44C256.36 45.08 255.89 45.84 255.54 46.71C255.2 47.59 255.02 48.52 255.02 49.5C255.02 50.49 255.2 51.42 255.54 52.29C255.89 53.16 256.36 53.92 256.95 54.57C257.55 55.22 258.24 55.73 259.04 56.11C259.83 56.49 260.68 56.68 261.58 56.68C262.84 56.68 263.97 56.35 264.97 55.68C265.97 55.01 266.76 54.12 267.33 53.01L270.91 55.32ZM282.46 38.72L282.46 60.28L278.05 60.28L278.05 42.48L271.74 42.48L271.74 38.72L282.46 38.72ZM283.1 38.72L288.76 38.72L288.76 42.48L284.97 42.48L283.1 38.72ZM295.07 38.72L295.07 60.28L290.6 60.28L290.6 38.72L295.07 38.72ZM307.59 38.44C309.1 38.44 310.51 38.74 311.81 39.32C313.12 39.91 314.25 40.7 315.21 41.69C316.17 42.69 316.92 43.86 317.46 45.21C318 46.55 318.27 47.98 318.27 49.5C318.27 50.8 318.08 52.03 317.69 53.2C317.3 54.37 316.75 55.43 316.04 56.37C315.32 57.32 314.47 58.12 313.48 58.79C312.49 59.46 311.41 59.94 310.22 60.22L308.08 56.56C308.94 56.5 309.72 56.26 310.42 55.86C311.13 55.46 311.73 54.95 312.24 54.32C312.75 53.7 313.15 52.97 313.44 52.14C313.72 51.3 313.87 50.43 313.87 49.5C313.87 48.54 313.71 47.62 313.39 46.76C313.07 45.9 312.64 45.15 312.09 44.51C311.54 43.88 310.88 43.37 310.11 43C309.35 42.63 308.51 42.45 307.59 42.45C306.67 42.45 305.83 42.63 305.06 43C304.3 43.37 303.63 43.88 303.07 44.51C302.51 45.15 302.07 45.9 301.76 46.76C301.44 47.62 301.28 48.54 301.28 49.5C301.28 50.47 301.44 51.38 301.76 52.24C302.07 53.11 302.51 53.86 303.07 54.49C303.63 55.13 304.3 55.63 305.06 56C305.83 56.37 306.67 56.56 307.59 56.56L307.59 60.56C306.08 60.56 304.67 60.27 303.36 59.7C302.06 59.12 300.93 58.33 299.97 57.33C299.01 56.32 298.26 55.15 297.72 53.8C297.17 52.46 296.9 51.02 296.9 49.5C296.9 47.98 297.17 46.55 297.72 45.21C298.26 43.86 299.01 42.69 299.97 41.69C300.93 40.7 302.06 39.91 303.36 39.32C304.67 38.74 306.08 38.44 307.59 38.44ZM324.58 38.72L338.39 58.74L338.39 60.28L333.92 60.28L324.58 46.73L324.58 60.28L320.11 60.28L320.11 38.72L324.58 38.72ZM333.92 38.72L338.39 38.72L338.39 54.86L333.92 51.63L333.92 38.72ZM350.23 47.69C351.21 47.95 352.12 48.25 352.94 48.58C353.77 48.91 354.48 49.31 355.09 49.78C355.69 50.25 356.16 50.82 356.49 51.47C356.83 52.13 357 52.91 357 53.82L357 53.91C357 54.89 356.8 55.8 356.4 56.62C356.01 57.44 355.45 58.14 354.75 58.73C354.05 59.31 353.22 59.77 352.27 60.08C351.32 60.4 350.28 60.56 349.16 60.56C348.12 60.56 347.13 60.43 346.18 60.18C345.23 59.92 344.37 59.59 343.59 59.17C342.82 58.75 342.14 58.28 341.56 57.75C340.97 57.22 340.53 56.67 340.22 56.09L343.81 53.82C344.19 54.25 344.58 54.63 344.97 54.97C345.36 55.31 345.76 55.6 346.19 55.83C346.62 56.07 347.09 56.25 347.6 56.37C348.11 56.5 348.67 56.56 349.29 56.56C349.67 56.56 350.07 56.52 350.46 56.43C350.86 56.35 351.22 56.22 351.55 56.03C351.88 55.85 352.14 55.62 352.35 55.34C352.55 55.06 352.65 54.72 352.65 54.3C352.65 54.02 352.58 53.74 352.44 53.47C352.3 53.2 352.05 52.94 351.7 52.68C351.36 52.43 350.89 52.18 350.3 51.94C349.7 51.71 348.96 51.48 348.06 51.25C346.96 50.98 345.97 50.68 345.09 50.34C344.21 50 343.47 49.59 342.86 49.11C342.24 48.62 341.77 48.04 341.45 47.36C341.12 46.68 340.96 45.88 340.96 44.95C340.96 43.95 341.15 43.04 341.52 42.22C341.9 41.41 342.43 40.73 343.1 40.17C343.77 39.62 344.57 39.19 345.47 38.89C346.38 38.59 347.36 38.44 348.4 38.44C349.48 38.44 350.46 38.57 351.34 38.81C352.21 39.06 353 39.37 353.69 39.75C354.39 40.13 354.99 40.56 355.52 41.05C356.04 41.53 356.47 42 356.82 42.45L353.3 44.73C352.42 43.89 351.59 43.3 350.8 42.96C350.01 42.62 349.19 42.45 348.34 42.45C347.81 42.45 347.35 42.52 346.97 42.65C346.6 42.78 346.29 42.95 346.04 43.14C345.8 43.34 345.61 43.56 345.47 43.8C345.34 44.05 345.27 44.29 345.27 44.51C345.27 44.92 345.38 45.28 345.6 45.58C345.81 45.87 346.13 46.15 346.55 46.39C346.96 46.64 347.48 46.86 348.11 47.07C348.73 47.27 349.44 47.48 350.23 47.69Z" />
</svg>